<svg width="73" height="72" viewBox="0 0 73 72" fill="none" xmlns="http://www.w3.org/2000/svg">
<rect x="1.40572" y="1.12264" width="69.7547" height="69.7547" rx="14.5943" fill="white" stroke="#00C08B" stroke-width="2.24528"/>
<rect x="0.283081" width="72" height="72" rx="16" fill="#00C08A"/>
<path fill-rule="evenodd" clip-rule="evenodd" d="M47.0183 25.3398H47.4455V15.8768H47.0183C44.401 15.8768 42.2757 17.9986 42.2757 20.6083C42.2757 23.2179 44.401 25.3398 47.0183 25.3398ZM39.6856 20.6073C39.6856 16.5683 42.9727 13.2832 47.0183 13.2832C51.0638 13.2832 54.3509 16.5683 54.3509 20.6073C54.3509 24.6463 51.0638 27.9313 47.0183 27.9313C42.9727 27.9313 39.6856 24.6463 39.6856 20.6073ZM42.2767 38.4457V45.8277C42.2767 47.8268 44.0159 49.4505 46.1549 49.4505C47.5968 49.4505 48.9089 48.7103 49.5854 47.5163L49.9442 46.8818L47.8804 46.8784C47.1663 46.8784 46.582 46.2951 46.582 45.5821C46.582 44.9203 47.074 44.3677 47.7027 44.2961L50.033 44.2858V41.7103H47.8804C47.1663 41.7103 46.582 41.1304 46.582 40.414C46.582 39.7556 47.074 39.203 47.7027 39.1313L50.033 39.1177V38.4457C50.033 36.4467 48.2938 34.8195 46.1549 34.8195C44.0159 34.8195 42.2767 36.4467 42.2767 38.4457ZM53.2346 57.2407L39.2562 57.2543C38.542 57.2543 37.9578 56.671 37.9578 55.958C37.9578 55.2996 38.4498 54.747 39.0751 54.672L39.2562 54.6617H44.8564V51.9259L44.5318 51.844C41.6753 51.1378 39.6833 48.6612 39.6833 45.8264V38.4444C39.6833 35.016 42.5876 32.229 46.1548 32.229C49.7255 32.229 52.6264 35.016 52.6264 38.4444V45.8264C52.6264 48.6612 50.631 51.1344 47.7744 51.844L47.4533 51.9259V54.6617H53.0535C53.7677 54.6617 54.3519 55.2416 54.3519 55.958C54.3519 56.6164 53.8633 57.169 53.2346 57.2407ZM25.456 25.3409C23.317 25.3409 21.5778 23.7307 21.5778 21.7522C21.5778 21.1893 22.0801 20.3399 22.3774 19.8794C22.7635 19.296 23.2555 18.665 23.8398 18.0134C24.1986 17.6109 24.5778 17.2117 24.9571 16.8263L25.456 16.3384L25.8592 16.7376C26.6724 17.5426 29.3341 20.2887 29.3341 21.7522C29.3341 23.7307 27.5949 25.3409 25.456 25.3409ZM26.6793 13.9357L26.3171 13.6116C25.8388 13.1852 25.1007 13.1784 24.6121 13.598L23.751 14.386C23.0506 15.0546 22.4424 15.6789 21.8991 16.2929C21.2157 17.0605 20.6485 17.7871 20.2077 18.4557C19.374 19.7281 18.9811 20.7754 18.9811 21.751C18.9811 25.1589 21.8854 27.9323 25.4561 27.9323C29.0267 27.9323 31.931 25.1589 31.931 21.751C31.931 20.4342 31.2101 18.9401 29.6554 17.0468C28.8183 16.02 27.8171 14.9727 26.6793 13.9357ZM23.646 46.6837C23.646 47.0896 23.4547 47.4751 23.1335 47.7173C22.146 48.461 21.5788 49.5799 21.5788 50.7943C21.5788 52.9264 23.318 54.6627 25.457 54.6627C27.5959 54.6627 29.3317 52.9264 29.3317 50.7943C29.3317 49.5833 28.7645 48.4644 27.777 47.7173C27.4558 47.4751 27.2611 47.0862 27.2611 46.6837V36.6272C27.2611 35.6311 26.4513 34.8226 25.457 34.8226C24.4592 34.8226 23.646 35.6311 23.646 36.6272V46.6837ZM31.9286 50.7933C31.9286 54.3547 29.0277 57.2543 25.457 57.2543C21.8864 57.2543 18.9821 54.3547 18.9821 50.7933C18.9821 49.1593 19.6039 47.6003 20.7213 46.4064L21.0527 46.0755V36.6262C21.0527 34.3031 22.8705 32.3757 25.1769 32.2358L25.4639 32.229C27.8864 32.2324 29.858 34.2041 29.858 36.6262V46.0755L30.1826 46.3995C31.2111 47.498 31.8295 48.9205 31.9149 50.3976L31.9286 50.7933Z" fill="white"/>
</svg>
