<svg width="72" height="73" viewBox="0 0 72 73" fill="none" xmlns="http://www.w3.org/2000/svg">
<rect x="1.12264" y="1.95272" width="69.7547" height="69.7547" rx="14.8774" fill="#00C08A" stroke="#00C08B" stroke-width="2.24528"/>
<path fill-rule="evenodd" clip-rule="evenodd" d="M17.5103 54.3169C16.6765 54.3169 16 53.6414 16 52.8091V18.3379C16 17.5055 16.6765 16.8301 17.5103 16.8301C18.344 16.8301 19.0205 17.5055 19.0205 18.3379V45.1079L19.165 45.0659C19.7971 44.8715 20.4634 45.2467 20.6479 45.8778C20.829 46.5123 20.4668 47.1741 19.8313 47.3583L19.0205 47.5944V52.8091C19.0205 53.6414 18.344 54.3169 17.5103 54.3169ZM54.8071 44.2363V37.1619C54.7983 37.1622 54.7894 37.1624 54.7806 37.1625C54.7745 37.1626 54.7684 37.1627 54.7624 37.1627C54.2464 37.1627 53.7681 36.8249 53.6143 36.303C53.6089 36.2843 53.6039 36.2656 53.5994 36.2468L53.5971 36.2406C53.5701 36.1667 53.5462 36.1012 53.5462 35.9924C53.5462 35.85 53.5697 35.7123 53.6141 35.584C53.5477 35.3734 53.5384 35.1417 53.5999 34.9123C53.7532 34.3647 54.2552 34.0052 54.8071 34.0332V27.0365C54.8071 26.2041 55.4837 25.5287 56.3174 25.5287C57.1511 25.5287 57.8277 26.2041 57.8277 27.0365V44.2363C57.8277 45.0686 57.1511 45.744 56.3174 45.744C55.4837 45.744 54.8071 45.0686 54.8071 44.2363ZM30.6737 27.414L31.927 27.7576C31.9478 27.7621 31.9686 27.7673 31.9892 27.773C32.5018 27.9094 32.8776 28.387 32.8776 28.9328C32.8776 28.9685 32.8735 29.0043 32.8666 29.04C32.8601 29.1062 32.848 29.1728 32.8298 29.2391C32.7276 29.6092 32.4634 29.8902 32.135 30.027C31.9927 30.0912 31.8385 30.1268 31.6817 30.1268C31.6388 30.1268 31.5899 30.1208 31.5398 30.1114C31.4791 30.1043 31.4175 30.0923 31.3571 30.0748L30.0382 29.7166C29.4061 29.5427 29.0302 28.8877 29.201 28.2498C29.3787 27.6153 30.0313 27.2332 30.6737 27.414ZM37.7047 31.8005C37.8039 31.8335 37.9002 31.8656 38.0029 31.8656C38.5496 31.8656 39.0246 31.4904 39.1612 30.9787C39.1988 30.8763 39.1988 30.774 39.1988 30.6716C39.233 30.1258 38.8571 29.6483 38.3446 29.5118L36.0211 28.8637C35.4061 28.6931 34.7227 29.1024 34.5519 29.7165C34.381 30.3305 34.7535 31.0128 35.4061 31.1833L37.6954 31.7974L37.7047 31.8005ZM44.0509 33.5383C44.15 33.5724 44.2559 33.5724 44.3585 33.5724C44.9052 33.5724 45.3835 33.2313 45.5202 32.7196C45.5544 32.5832 45.5544 32.5149 45.5544 32.4126C45.5851 31.8668 45.2127 31.3892 44.7001 31.2527L42.3767 30.6046C41.7616 30.434 41.0783 30.8093 40.9074 31.4574C40.7331 32.0715 41.1124 32.7537 41.7616 32.9243L44.0509 33.5383ZM50.4029 35.2768C50.5088 35.3109 50.6113 35.3109 50.7104 35.3109C51.2571 35.3109 51.7389 34.9698 51.8756 34.424C52.0464 33.8099 51.6706 33.1618 51.0214 32.9571L48.732 32.3431C48.0828 32.1725 47.4302 32.5477 47.2628 33.1959C47.1569 33.4688 47.1945 33.8099 47.3653 34.0828C47.5361 34.3557 47.7753 34.5604 48.0828 34.6628L50.4029 35.2768ZM47.1567 39.3691C46.6134 39.3691 46.1692 39.028 45.995 38.5163C45.9642 38.3798 45.9642 38.2775 45.9642 38.141C45.9642 37.6293 46.3025 37.1859 46.8184 37.0153L49.5861 36.2307C50.2011 36.0601 50.8845 36.4013 51.0554 37.0494C51.1579 37.3564 51.1203 37.6634 50.9836 37.9363C50.8162 38.2434 50.5428 38.448 50.2353 38.5163L47.4676 39.335C47.3651 39.3691 47.2626 39.3691 47.1567 39.3691ZM39.5404 41.5867C39.0245 41.5867 38.5495 41.2115 38.3787 40.7339C38.3445 40.5974 38.3445 40.4951 38.3445 40.3586C38.3445 39.847 38.7204 39.3694 39.1988 39.2329L41.9664 38.4483C42.578 38.2436 43.2648 38.6189 43.4699 39.267C43.5382 39.574 43.504 39.8811 43.3673 40.154C43.1965 40.4269 42.9573 40.6316 42.6498 40.7339L39.8787 41.5185C39.7796 41.5526 39.6429 41.5867 39.5404 41.5867ZM31.9551 43.8047C31.4084 43.8047 30.9642 43.4636 30.7934 42.9519C30.7558 42.8495 30.7558 42.7472 30.7558 42.6449C30.725 42.0991 31.1009 41.5874 31.61 41.4509L34.3811 40.6322C35.0269 40.4616 35.6795 40.8369 35.8503 41.4509C36.0212 42.0991 35.6795 42.7472 35.0269 42.9519L32.2626 43.7365C32.1601 43.7706 32.0542 43.8047 31.9551 43.8047ZM24.3354 45.9866C23.8229 45.9866 23.3445 45.6455 23.2078 45.1338C23.1053 44.8267 23.1395 44.5197 23.2762 44.2468C23.447 43.9398 23.6862 43.7351 23.9937 43.6669L26.7614 42.8482C27.3764 42.6776 28.0564 43.0529 28.2306 43.6669C28.4357 44.315 28.0564 44.9632 27.4448 45.1338L24.6771 45.9525C24.5746 45.9866 24.4379 45.9866 24.3354 45.9866ZM25.1807 31.9649C25.4404 32.3844 25.888 32.6164 26.3493 32.6164C26.5919 32.6164 26.8413 32.5516 27.06 32.4151C27.7024 32.0263 27.9074 31.1871 27.5179 30.5423L25.4951 27.2368L28.9837 25.5448C29.6637 25.2139 29.9473 24.3986 29.6158 23.7197C29.2878 23.0443 28.4814 22.7646 27.7912 23.0886L22.9495 25.439C22.601 25.6062 22.3413 25.9132 22.2354 26.2816C22.126 26.65 22.1773 27.0492 22.3789 27.3767L25.1807 31.9649Z" fill="white"/>
</svg>
